<svg xmlns="http://www.w3.org/2000/svg" viewBox="0 0 300 200"><defs><style>.cls-1{fill:#fff}</style></defs><g id="Layer_2" data-name="Layer 2"><g id="Layer_2-2" data-name="Layer 2"><rect width="300" height="200" rx="40"/><path class="cls-1" d="M69.75 62h25.5v94h-25.5z"/><path class="cls-1" d="M141.75 51.33v21.34h-72"/><path class="cls-1" d="M69.75 72.67V61.33a10 10 0 0110-10h62M69.75 99.33H129v18H69.75zM219.22 104.67c11.4-4.44 19.28-14 19.28-25 0-14.24-13.13-26-30-27.5V52H162v105.33h46.5v-.17c16.87-1.53 30-13.25 30-27.49 0-11.04-7.88-20.56-19.28-25z"/><ellipse cx="192.38" cy="86.33" rx="17.63" ry="13"/><ellipse cx="192.38" cy="125" rx="17.63" ry="13"/><path class="cls-1" d="M162 68.67h26.25V138H162z"/></g></g></svg>